<?xml version="1.0" encoding="UTF-8" standalone="no"?>
<!DOCTYPE svg PUBLIC "-//W3C//DTD SVG 1.1//EN"
 "http://www.w3.org/Graphics/SVG/1.1/DTD/svg11.dtd">
<!-- Generated by graphviz version 2.40.1 (20161225.0304)
 -->
<!-- Title: dependencies Pages: 1 -->
<svg width="504pt" height="284pt"
 viewBox="0.00 0.00 504.00 284.00" xmlns="http://www.w3.org/2000/svg" xmlns:xlink="http://www.w3.org/1999/xlink">
<g id="graph0" class="graph" transform="scale(1 1) rotate(0) translate(4 280)">
<title>dependencies</title>
<polygon fill="#ffffff" stroke="transparent" points="-4,4 -4,-280 500,-280 500,4 -4,4"/>
<text text-anchor="start" x="227.0091" y="-42.4" font-family="sans-serif" font-weight="bold" font-size="14.00" fill="#000000">Legend</text>
<polygon fill="#ffffb3" stroke="transparent" points="14,-10 14,-30 34,-30 34,-10 14,-10"/>
<text text-anchor="start" x="37.629" y="-15.4" font-family="sans-serif" font-size="14.00" fill="#000000"> &#160;Declarations</text>
<polygon fill="#8dd3c7" stroke="transparent" points="127,-10 127,-30 147,-30 147,-10 127,-10"/>
<text text-anchor="start" x="150.7251" y="-15.4" font-family="sans-serif" font-size="14.00" fill="#000000"> &#160;Module</text>
<polygon fill="#80b1d3" stroke="transparent" points="213,-10 213,-30 233,-30 233,-10 213,-10"/>
<text text-anchor="start" x="236.7812" y="-15.4" font-family="sans-serif" font-size="14.00" fill="#000000"> &#160;Bootstrap</text>
<polygon fill="#fdb462" stroke="transparent" points="310,-10 310,-30 330,-30 330,-10 310,-10"/>
<text text-anchor="start" x="333.6732" y="-15.4" font-family="sans-serif" font-size="14.00" fill="#000000"> &#160;Providers</text>
<polygon fill="#fb8072" stroke="transparent" points="406,-10 406,-30 426,-30 426,-10 406,-10"/>
<text text-anchor="start" x="429.7258" y="-15.4" font-family="sans-serif" font-size="14.00" fill="#000000"> &#160;Exports</text>
<g id="clust1" class="cluster">
<title>cluster_AppModule</title>
<polygon fill="none" stroke="#000000" stroke-dasharray="1,5" points="75,-70 75,-268 421,-268 421,-70 75,-70"/>
</g>
<g id="clust2" class="cluster">
<title>cluster_AppModule_declarations</title>
<polygon fill="none" stroke="#000000" points="83,-78 83,-130 413,-130 413,-78 83,-78"/>
</g>
<g id="clust8" class="cluster">
<title>cluster_AppModule_bootstrap</title>
<polygon fill="none" stroke="#000000" points="174,-208 174,-260 298,-260 298,-208 174,-208"/>
</g>
<!-- AppComponent -->
<g id="node1" class="node">
<title>AppComponent</title>
<polygon fill="#ffffb3" stroke="#000000" points="404.9399,-122 299.0601,-122 299.0601,-86 404.9399,-86 404.9399,-122"/>
<text text-anchor="middle" x="352" y="-99.8" font-family="Times,serif" font-size="14.00" fill="#000000">AppComponent</text>
</g>
<!-- AppModule -->
<g id="node4" class="node">
<title>AppModule</title>
<polygon fill="#8dd3c7" stroke="#000000" points="277.6571,-187 274.6571,-191 253.6571,-191 250.6571,-187 194.3429,-187 194.3429,-151 277.6571,-151 277.6571,-187"/>
<text text-anchor="middle" x="236" y="-164.8" font-family="Times,serif" font-size="14.00" fill="#000000">AppModule</text>
</g>
<!-- AppComponent&#45;&gt;AppModule -->
<g id="edge1" class="edge">
<title>AppComponent&#45;&gt;AppModule</title>
<path fill="none" stroke="#000000" d="M352,-122.1061C352,-141.3391 352,-169 352,-169 352,-169 287.8787,-169 287.8787,-169"/>
<polygon fill="#000000" stroke="#000000" points="287.8787,-165.5001 277.8787,-169 287.8786,-172.5001 287.8787,-165.5001"/>
</g>
<!-- OnlyNumber -->
<g id="node2" class="node">
<title>OnlyNumber</title>
<polygon fill="#ffffb3" stroke="#000000" points="280.8697,-122 191.1303,-122 191.1303,-86 280.8697,-86 280.8697,-122"/>
<text text-anchor="middle" x="236" y="-99.8" font-family="Times,serif" font-size="14.00" fill="#000000">OnlyNumber</text>
</g>
<!-- OnlyNumber&#45;&gt;AppModule -->
<g id="edge2" class="edge">
<title>OnlyNumber&#45;&gt;AppModule</title>
<path fill="none" stroke="#000000" d="M236,-122.1061C236,-122.1061 236,-140.991 236,-140.991"/>
<polygon fill="#000000" stroke="#000000" points="232.5001,-140.9909 236,-150.991 239.5001,-140.991 232.5001,-140.9909"/>
</g>
<!-- OnlyAGCT -->
<g id="node3" class="node">
<title>OnlyAGCT</title>
<polygon fill="#ffffb3" stroke="#000000" points="173.0997,-122 90.9003,-122 90.9003,-86 173.0997,-86 173.0997,-122"/>
<text text-anchor="middle" x="132" y="-99.8" font-family="Times,serif" font-size="14.00" fill="#000000">OnlyAGCT</text>
</g>
<!-- OnlyAGCT&#45;&gt;AppModule -->
<g id="edge3" class="edge">
<title>OnlyAGCT&#45;&gt;AppModule</title>
<path fill="none" stroke="#000000" d="M132,-122.1061C132,-141.3391 132,-169 132,-169 132,-169 184.2985,-169 184.2985,-169"/>
<polygon fill="#000000" stroke="#000000" points="184.2985,-172.5001 194.2985,-169 184.2984,-165.5001 184.2985,-172.5001"/>
</g>
<!-- AppComponent  -->
<g id="node5" class="node">
<title>AppComponent </title>
<polygon fill="#80b1d3" stroke="#000000" points="290.439,-252 181.561,-252 181.561,-216 290.439,-216 290.439,-252"/>
<text text-anchor="middle" x="236" y="-229.8" font-family="Times,serif" font-size="14.00" fill="#000000">AppComponent </text>
</g>
<!-- AppModule&#45;&gt;AppComponent  -->
<g id="edge4" class="edge">
<title>AppModule&#45;&gt;AppComponent </title>
<path fill="none" stroke="#000000" stroke-dasharray="1,5" d="M236,-187.1061C236,-187.1061 236,-205.991 236,-205.991"/>
<polygon fill="#000000" stroke="#000000" points="232.5001,-205.9909 236,-215.991 239.5001,-205.991 232.5001,-205.9909"/>
</g>
</g>
</svg>
